<?xml version="1.0" encoding="utf-8"?>
<!-- Generator: Adobe Illustrator 25.1.0, SVG Export Plug-In . SVG Version: 6.00 Build 0)  -->
<svg version="1.1" id="Layer_1" xmlns="http://www.w3.org/2000/svg" xmlns:xlink="http://www.w3.org/1999/xlink" x="0px" y="0px"
	 viewBox="0 0 69.2 76" style="enable-background:new 0 0 69.2 76;" xml:space="preserve">
<style type="text/css">
	.st0{fill:#fff;}
</style>
<g id="XMLID_1_">
	<path id="XMLID_4_" class="st0" d="M69.2,26.4c0-1.8-0.4-3.6-1.1-5.2L64.5,23c0.4,1.1,0.7,2.2,0.7,3.4c0,6.2-6.7,9.9-20.2,11v2.1
		c13.5,1.2,20.2,4.8,20.2,11c0,2.4-0.8,4.5-2.5,6.3c-1.7,1.8-3.5,2.7-5.6,2.7c-5,0-10.4-4.2-16.3-12.7l-2,1
		c2.9,5.9,4.3,10.9,4.3,14.9c0,6.1-2.8,9.2-8.5,9.2c-2.7,0-4.9-0.8-6.3-2.5c-1.5-1.7-2.2-3.8-2.2-6.6c0-4.1,1.4-9.1,4.3-15l-1.9-1
		c-5.8,8.4-11.3,12.7-16.3,12.7c-2.2,0-4.1-0.9-5.7-2.8C4.8,54.9,4,52.8,4,50.6c0-6.2,6.7-9.9,20.2-11v-2.1C10.7,36.3,4,32.7,4,26.4
		c0-2.4,0.8-4.5,2.5-6.3c1.7-1.8,3.6-2.7,5.6-2.7c5.1,0,10.5,4.3,16.3,12.8l1.9-1.1C27.5,23.1,26,18.1,26,14.1
		c0-2.7,0.7-4.9,2.2-6.6c0.9-1.1,2.2-1.8,3.6-2.2l-0.4-4c-2.2,0.5-4.1,1.6-5.7,3.2c-2.3,2.4-3.5,5.4-3.5,9.1v3.6l-1-0.7
		c-3-2.2-6-3.3-9-3.3c-3.4,0-6.2,1.3-8.6,3.9C1.2,20,0,23,0,26.4c0,5.1,3.3,9.2,9.9,12.1L8.8,39C2.9,41.7,0,45.5,0,50.6
		c0,1.8,0.3,3.4,1,5c0.9,2.2,2.4,4.1,4.4,5.7c2.1,1.5,4.3,2.3,6.7,2.3c3,0,6.4-1.3,10.1-4v1.3v0.5v1.1c0,4.1,1.1,7.3,3.3,9.8
		c2.2,2.5,5.2,3.7,9.2,3.7c3.6,0,6.6-1.2,8.9-3.6c2.3-2.4,3.5-5.4,3.5-9.2v-3.7l1,0.8c2.6,2.1,5.6,3.1,9,3.1c3.3,0,6.2-1.3,8.5-4
		c2.4-2.7,3.5-5.7,3.5-9c0-5-3.3-9-9.9-12.1l1.1-0.5C66.3,35.4,69.2,31.5,69.2,26.4z"/>
	<path id="XMLID_2_" class="st0" d="M41.8,27.3l-1.2-0.6c0,0-4.5-15.8-4.2-19.6c0.2-2.6,1.7-4.9,3.9-6.2c2.3-1.3,4.9-1.3,7.5,0
		c3,1.5,3.6,4.8,3.6,7.4c0.2-0.1,0.3-0.2,0.5-0.4c2.6-1.9,5.2-2.2,7.5-1c2.5,1.3,3.9,3.4,4.1,6.1c0.2,2.7-1,5.4-3,6.8
		C55.7,23.2,41.8,27.3,41.8,27.3z"/>
</g>
</svg>
